<svg xmlns="http://www.w3.org/2000/svg" version="1.1" xmlns:xlink="http://www.w3.org/1999/xlink" xmlns:svgjs="http://svgjs.dev/svgjs" width="1500" height="1500" viewBox="0 0 1500 1500"><rect width="1500" height="1500" fill="#000000"></rect><g transform="matrix(0.6666666666666666,0,0,0.6666666666666666,249.72161964497752,572.5698856270052)"><svg viewBox="0 0 397 141" data-background-color="#ffffff" preserveAspectRatio="xMidYMid meet" height="532" width="1500" xmlns="http://www.w3.org/2000/svg" xmlns:xlink="http://www.w3.org/1999/xlink"><g id="tight-bounds" transform="matrix(1,0,0,1,1.474761163089397,0.03847592084287044)"><svg viewBox="0 0 395.52 140.92304815831417" height="140.92304815831417" width="395.52"><g><svg viewBox="0 0 516.365693994513 183.9801465465465" height="140.92304815831417" width="395.52"><g transform="matrix(1,0,0,1,120.84569399451297,56.85253573573572)"><svg viewBox="0 0 395.52 70.27507507507507" height="70.27507507507507" width="395.52"><g id="textblocktransform"><svg viewBox="0 0 395.52 70.27507507507507" height="70.27507507507507" width="395.52" id="textblock"><g><svg viewBox="0 0 395.52 70.27507507507507" height="70.27507507507507" width="395.52"><g transform="matrix(1,0,0,1,0,0)"><svg width="395.52" viewBox="2.75 -35 199.78 35.5" height="70.27507507507507" data-palette-color="#6b7280"><path d="M10.8-24L19.65-24 19.65-19.8 10.8-19.8Q9.35-19.8 8.3-19.25 7.25-18.7 7.25-17.7L7.25-17.7Q7.25-17.1 7.5-16.63 7.75-16.15 8.08-15.85 8.4-15.55 9.08-15.23 9.75-14.9 10.13-14.78 10.5-14.65 13.3-13.75 16.1-12.85 17.45-12.25 18.8-11.65 19.53-10.63 20.25-9.6 20.45-8.63 20.65-7.65 20.65-6.7L20.65-6.7Q20.65 0 11.45 0L11.45 0 2.8 0 2.8-4.2 11.45-4.2Q16.15-4.2 16.15-6.7L16.15-6.7Q16.15-7.9 14.78-8.7 13.4-9.5 11.43-10.05 9.45-10.6 7.48-11.33 5.5-12.05 4.13-13.68 2.75-15.3 2.75-17.7L2.75-17.7Q2.75-20.75 5.1-22.38 7.45-24 10.8-24L10.8-24ZM39-14.1L39-14.1 39-9.6Q37.1-11.05 34.35-11.05L34.35-11.05Q32-11.05 30.7-10.13 29.4-9.2 29.4-7.5L29.4-7.5Q29.4-4.2 34.3-4.2L34.3-4.2 40.9-4.2 40.9-13.75Q40.9-19.8 35-19.8L35-19.8 27-19.8 27-24 35.25-24Q40.1-24 42.7-21.6 45.3-19.2 45.3-14.7L45.3-14.7 45.3 0 34.15 0Q29.9 0 27.4-1.9 24.9-3.8 24.9-7.45 24.9-11.1 27.55-13 30.2-14.9 34.2-14.9L34.2-14.9Q36.45-14.9 39-14.1ZM59.4-14.45L64.59-24 69.45-24 63.4-13.55Q69.55-11.9 69.55-3.6L69.55-3.6 69.55 0 65.15 0 65.15-3.65Q65.15-7 63.17-8.83 61.2-10.65 57.55-10.65L57.55-10.65Q56.4-10.65 55.2-10.5L55.2-10.5 55.2 0 50.8 0 50.8-35 55.2-35 55.2-14.45Q57.3-14.75 59.4-14.45L59.4-14.45ZM86.54-24.5L86.54-24.5Q95.04-24.15 95.04-17.45L95.04-17.45Q95.04-9.1 84.09-9.1L84.09-9.1 82.04-9.1 82.04-12.95 84.44-12.95Q87.79-12.95 89.09-13.98 90.39-15 90.39-17.4L90.39-17.4Q90.39-18.95 89.24-19.73 88.09-20.5 86.29-20.5L86.29-20.5Q82.74-20.5 80.72-18 78.69-15.5 78.69-12L78.69-12Q78.69-8.3 80.87-6 83.04-3.7 86.54-3.7L86.54-3.7Q89.69-3.7 91.69-5.25L91.69-5.25 94.69-2.3Q91.24 0.5 86.54 0.5L86.54 0.5Q80.84 0.5 77.44-2.85 74.04-6.2 74.04-11.5L74.04-11.5Q74.04-17.4 77.39-21.05 80.74-24.7 86.54-24.5ZM111.69-12L111.69-35 116.19-35 116.19-12Q116.19-8.05 118.21-5.88 120.24-3.7 123.79-3.7L123.79-3.7Q127.49-3.7 129.59-5.83 131.69-7.95 131.69-12L131.69-12Q131.69-15.85 129.41-18.07 127.14-20.3 123.44-20.3L123.44-20.3Q120.29-20.3 117.99-18.5L117.99-18.5 117.99-23Q120.74-24.5 123.94-24.5L123.94-24.5Q129.24-24.5 132.71-21.08 136.19-17.65 136.19-12L136.19-12Q136.19-6.05 132.56-2.78 128.94 0.5 123.44 0.5L123.44 0.5Q118.19 0.5 114.94-2.9 111.69-6.3 111.69-12L111.69-12ZM153.19-24.5L153.19-24.5Q161.69-24.15 161.69-17.45L161.69-17.45Q161.69-9.1 150.74-9.1L150.74-9.1 148.69-9.1 148.69-12.95 151.09-12.95Q154.44-12.95 155.74-13.98 157.03-15 157.03-17.4L157.03-17.4Q157.03-18.95 155.88-19.73 154.74-20.5 152.94-20.5L152.94-20.5Q149.38-20.5 147.36-18 145.34-15.5 145.34-12L145.34-12Q145.34-8.3 147.51-6 149.69-3.7 153.19-3.7L153.19-3.7Q156.34-3.7 158.34-5.25L158.34-5.25 161.34-2.3Q157.88 0.5 153.19 0.5L153.19 0.5Q147.49 0.5 144.09-2.85 140.69-6.2 140.69-11.5L140.69-11.5Q140.69-17.4 144.03-21.05 147.38-24.7 153.19-24.5ZM174.48-24L183.33-24 183.33-19.8 174.48-19.8Q173.03-19.8 171.98-19.25 170.93-18.7 170.93-17.7L170.93-17.7Q170.93-17.1 171.18-16.63 171.43-16.15 171.76-15.85 172.08-15.55 172.76-15.23 173.43-14.9 173.81-14.78 174.18-14.65 176.98-13.75 179.78-12.85 181.13-12.25 182.48-11.65 183.21-10.63 183.93-9.6 184.13-8.63 184.33-7.65 184.33-6.7L184.33-6.7Q184.33 0 175.13 0L175.13 0 166.48 0 166.48-4.2 175.13-4.2Q179.83-4.2 179.83-6.7L179.83-6.7Q179.83-7.9 178.46-8.7 177.08-9.5 175.11-10.05 173.13-10.6 171.16-11.33 169.18-12.05 167.81-13.68 166.43-15.3 166.43-17.7L166.43-17.7Q166.43-20.75 168.78-22.38 171.13-24 174.48-24L174.48-24ZM191.28-19.8L186.83-19.8 195.78-28.75 195.78-24 202.53-24 202.53-19.8 195.78-19.8 195.78-9.5Q195.78-7.75 196.36-6.6 196.93-5.45 198.03-4.98 199.13-4.5 200.11-4.35 201.08-4.2 202.53-4.2L202.53-4.2 202.53 0Q196.78 0 194.03-2.2 191.28-4.4 191.28-9.5L191.28-9.5 191.28-19.8Z" opacity="1" transform="matrix(1,0,0,1,0,0)" fill="#ffffff" class="wordmark-text-0" data-fill-palette-color="primary" id="text-0"></path></svg></g></svg></g></svg></g></svg></g><g><svg viewBox="0 0 104.25543537108955 183.9801465465465" height="183.9801465465465" width="104.25543537108955"><g><svg xmlns="http://www.w3.org/2000/svg" viewBox="14.999993805403392 2 34.00000619459661 60" x="0" y="0" height="183.9801465465465" width="104.25543537108955" class="icon-icon-0" data-fill-palette-color="accent" id="icon-0"><path d="M21.408 22.085A14.3 14.3 0 0 0 19 30.04V57a1 1 0 0 0 2 0V30.04a12.314 12.314 0 0 1 2.072-6.846 1 1 0 0 0-1.664-1.109Z" fill="#ffffff" data-fill-palette-color="accent"></path><path d="M48 41H40V28.04a14.3 14.3 0 0 0-2.407-7.954l-1.155-1.737A2.563 2.563 0 0 1 36 16.9v-0.653a63.479 63.479 0 0 1 1.947-6.308C39.375 5.705 40 3.769 40 3a1 1 0 0 0-1-1H16a1 1 0 0 0-1 1c0 0.769 0.625 2.705 2.053 6.939A64.107 64.107 0 0 1 19 16.24v0.66a2.568 2.568 0 0 1-0.443 1.456l-1.149 1.729A14.3 14.3 0 0 0 15 28.04V61a1 1 0 0 0 1 1H46a1 1 0 0 0 1-1 0.987 0.987 0 0 0-0.087-0.4A6.224 6.224 0 0 0 49 56V42A1 1 0 0 0 48 41ZM17 28.04a12.313 12.313 0 0 1 2.073-6.847l1.144-1.721A4.562 4.562 0 0 0 21 16.9v-0.66c0-0.768-0.625-2.7-2.053-6.939C18.355 7.543 17.6 5.31 17.23 4H37.77c-0.374 1.312-1.125 3.544-1.717 5.3C34.625 13.535 34 15.472 34 16.24v0.66a4.558 4.558 0 0 0 0.777 2.564l1.151 1.73A12.314 12.314 0 0 1 38 28.04V41H36a1 1 0 0 0-1 1V56a6.185 6.185 0 0 0 1.509 4H17ZM47 56a3.962 3.962 0 0 1-3.588 4H40.588A3.962 3.962 0 0 1 37 56V43H47Z" fill="#ffffff" data-fill-palette-color="accent"></path></svg></g></svg></g></svg></g><defs></defs></svg><rect width="395.52" height="140.92304815831417" fill="none" stroke="none" visibility="hidden"></rect></g></svg></g></svg>